<?xml version="1.0" encoding="UTF-8"?>
<svg width="194px" height="35px" viewBox="0 0 194 35" version="1.1" xmlns="http://www.w3.org/2000/svg" xmlns:xlink="http://www.w3.org/1999/xlink">
    <!-- Generator: Sketch 64 (93537) - https://sketch.com -->
    <title>2备份</title>
    <desc>Created with Sketch.</desc>
    <g id="页面-1" stroke="none" stroke-width="1" fill="none" fill-rule="evenodd">
        <g id="logo" transform="translate(-357.000000, -68.000000)" fill="#FFFFFF" fill-rule="nonzero">
            <g id="2备份" transform="translate(357.000000, 68.000000)">
                <path d="M64.0243902,6.34815844 L64.0243902,0 L35.6265384,0 C35.1918774,0 34.7572164,0.0729673384 34.370851,0.243224461 C33.9844857,0.389159138 33.6464161,0.6323836 33.3566421,0.924252953 C32.7770941,1.53231411 32.4390244,2.35927728 32.4390244,3.18624044 L32.4390244,26.0979847 C32.4390244,27.751911 32.7287984,29.1382905 33.3324942,30.257123 C33.8637466,31.3273106 34.6123294,32.2515636 35.529947,33.0055594 C36.3751212,33.6865879 37.3651824,34.2216817 38.4035392,34.5378735 C39.3211569,34.8297429 40.2870702,34.9756776 41.2771313,35 L64.0243902,35 L64.0243902,28.6518416 L41.325427,28.6518416 C40.4802529,28.6518416 39.8524092,28.4329395 39.4177482,27.9951355 C38.9830872,27.5573315 38.7657567,26.9249479 38.7657567,26.0979847 L38.7657567,20.6984017 L61.1990938,20.6984017 L61.1990938,14.3015983 L38.7657567,14.3015983 L38.7657567,6.34815844 L64.0243902,6.34815844 Z" id="路径"></path>
                <polygon id="路径" points="101.585366 6.34375 87.6658381 6.34375 87.6658381 35 81.3585521 35 81.3585521 6.34375 67.4390244 6.34375 67.4390244 0 101.585366 0 101.585366 6.34375"></polygon>
                <path d="M129.28178,23.5520833 C130.137713,23.5520833 130.969191,23.4548611 131.800669,23.2847222 C132.705513,23.0902778 133.610357,22.7986111 134.441836,22.4097222 C135.346679,21.9965278 136.178158,21.4861111 136.960725,20.8784722 C137.767748,20.2465278 138.501406,19.4930556 139.088331,18.6423611 C139.724168,17.71875 140.213272,16.6979167 140.555646,15.6284722 C140.922474,14.3645833 141.118116,13.0520833 141.093661,11.7395833 L141.093661,7.70486111 C141.093661,6.85416667 140.94693,6.00347222 140.677922,5.20138889 C140.408914,4.30208333 139.944265,3.45138889 139.357339,2.69791667 C138.697047,1.89583333 137.890025,1.23958333 136.960725,0.777777778 C135.982516,0.267361111 134.784209,0 133.34135,0 L109.08175,0 C108.641556,0 108.201362,0.0729166667 107.810078,0.243055556 C107.418794,0.388888889 107.076421,0.631944444 106.782958,0.923611111 C106.196032,1.53125 105.853659,2.35763889 105.853659,3.18402778 L105.853659,35 L112.236476,35 L112.236476,23.5520833 L119.377407,23.5520833 L132.681058,35 L142.560976,35 L129.28178,23.5520833 Z M112.285387,17.2083333 L112.285387,6.34375 L133.365805,6.34375 C133.512536,6.34375 133.659268,6.34375 133.805999,6.36805556 C133.952731,6.39236111 134.123917,6.44097222 134.246194,6.51388889 C134.392925,6.61111111 134.515201,6.75694444 134.588567,6.92708333 C134.686388,7.19444444 134.735298,7.46180556 134.735298,7.75347222 L134.735298,11.7638889 C134.759754,12.5173611 134.613022,13.2708333 134.344015,13.9756944 C134.099462,14.6076389 133.708178,15.1666667 133.219073,15.6284722 C132.729969,16.0902778 132.143043,16.4548611 131.507207,16.7222222 C130.798005,16.9895833 130.064347,17.1597222 129.306235,17.2083333 L112.285387,17.2083333 Z" id="形状"></path>
                <polygon id="路径" points="151.097561 35 145.121951 35 145.121951 0 151.097561 0"></polygon>
                <path d="M28.1707317,2.94097222 C28.1707317,3.35416667 28.0984643,3.76736111 27.9780187,4.15625 C27.8334839,4.54513889 27.66486,4.93402778 27.4239687,5.27430556 L11.139717,28.7534722 L25.6654622,28.7534722 L25.6654622,35 L0.853658537,35 L0.853658537,31.8888889 C0.853658537,31.5243056 0.925925926,31.1354167 1.04637157,30.7951389 C1.16681722,30.4305556 1.33544113,30.0902778 1.57633243,29.7986111 L17.9087624,6.24652778 L10.4411322,6.24652778 L10.4411322,0 L28.1466426,0 L28.1466426,2.94097222 L28.1707317,2.94097222 Z" id="路径"></path>
                <rect id="矩形" x="25.6097561" y="29.0243902" width="2.56097561" height="2.56097561"></rect>
                <rect id="矩形" x="29.8780488" y="32.4390244" width="2.56097561" height="2.56097561"></rect>
                <rect id="矩形" x="25.6097561" y="32.4390244" width="2.56097561" height="2.56097561"></rect>
                <rect id="矩形" x="27.3170732" y="30.7317073" width="2.56097561" height="2.56097561"></rect>
                <rect id="矩形" x="1.70731707" y="1.70731707" width="2.56097561" height="2.56097561"></rect>
                <rect id="矩形" x="1.70731707" y="3.41463415" width="2.56097561" height="2.56097561"></rect>
                <rect id="矩形" x="0" y="0" width="2.56097561" height="2.56097561"></rect>
                <rect id="矩形" x="0" y="3.41463415" width="2.56097561" height="2.56097561"></rect>
                <rect id="矩形" x="3.41463415" y="0" width="2.56097561" height="2.56097561"></rect>
                <rect id="矩形" x="3.41463415" y="3.41463415" width="2.56097561" height="2.56097561"></rect>
                <rect id="矩形" x="5.97560976" y="0" width="2.56097561" height="2.56097561"></rect>
                <rect id="矩形" x="5.97560976" y="1.70731707" width="2.56097561" height="2.56097561"></rect>
                <rect id="矩形" x="7.68292683" y="1.70731707" width="2.56097561" height="2.56097561"></rect>
                <rect id="矩形" x="7.68292683" y="3.41463415" width="2.56097561" height="2.56097561"></rect>
                <polygon id="路径" points="174.096947 12.4930556 184.963645 0 193.780488 0 178.468323 17.5486111 193.6817 35 184.914251 35 174.096947 22.6041667 163.329038 35 154.536892 35 169.725571 17.5486111 154.512195 0 163.254947 0"></polygon>
            </g>
        </g>
    </g>
</svg>